<mxfile host="app.diagrams.net" modified="2022-10-04T02:40:41.805Z" agent="5.0 (Windows NT 10.0; WOW64) AppleWebKit/537.36 (KHTML, like Gecko) Chrome/80.0.3987.87 Safari/537.36 SE 2.X MetaSr 1.0" etag="0rFB86xa-2VdpO_niahh" version="20.3.6" type="github">
  <diagram id="58ZqIlATpVmh4xxq5qRb" name="第 1 页">
    <mxGraphModel dx="845" dy="862" grid="0" gridSize="10" guides="1" tooltips="1" connect="1" arrows="1" fold="1" page="0" pageScale="1" pageWidth="827" pageHeight="1169" math="0" shadow="0">
      <root>
        <mxCell id="0" />
        <mxCell id="1" parent="0" />
        <mxCell id="BjwGlEAwL-FPY7ckOora-26" value="" style="rounded=0;whiteSpace=wrap;html=1;fontSize=17;dashed=1;" vertex="1" parent="1">
          <mxGeometry x="1383" y="-21" width="100" height="204" as="geometry" />
        </mxCell>
        <mxCell id="BjwGlEAwL-FPY7ckOora-25" value="" style="rounded=0;whiteSpace=wrap;html=1;fontSize=17;dashed=1;" vertex="1" parent="1">
          <mxGeometry x="1104.25" y="-21" width="100" height="204" as="geometry" />
        </mxCell>
        <mxCell id="BjwGlEAwL-FPY7ckOora-23" value="" style="rounded=0;whiteSpace=wrap;html=1;fontSize=17;dashed=1;" vertex="1" parent="1">
          <mxGeometry x="863" y="-21" width="100" height="204" as="geometry" />
        </mxCell>
        <mxCell id="BjwGlEAwL-FPY7ckOora-1" value="&lt;font style=&quot;font-size: 17px;&quot;&gt;本地模型&lt;/font&gt;" style="ellipse;whiteSpace=wrap;html=1;aspect=fixed;" vertex="1" parent="1">
          <mxGeometry x="50" y="110" width="80" height="80" as="geometry" />
        </mxCell>
        <mxCell id="BjwGlEAwL-FPY7ckOora-2" value="&lt;span style=&quot;font-size: 17px;&quot;&gt;本地模型&lt;/span&gt;" style="ellipse;whiteSpace=wrap;html=1;aspect=fixed;" vertex="1" parent="1">
          <mxGeometry x="290" y="110" width="80" height="80" as="geometry" />
        </mxCell>
        <mxCell id="BjwGlEAwL-FPY7ckOora-4" value="&lt;span style=&quot;font-size: 17px;&quot;&gt;本地模型&lt;/span&gt;" style="ellipse;whiteSpace=wrap;html=1;aspect=fixed;" vertex="1" parent="1">
          <mxGeometry x="570" y="110" width="80" height="80" as="geometry" />
        </mxCell>
        <mxCell id="BjwGlEAwL-FPY7ckOora-5" value="&lt;span style=&quot;font-size: 17px;&quot;&gt;中心模型&lt;/span&gt;" style="ellipse;whiteSpace=wrap;html=1;" vertex="1" parent="1">
          <mxGeometry x="310" y="-170" width="120" height="80" as="geometry" />
        </mxCell>
        <mxCell id="BjwGlEAwL-FPY7ckOora-6" value="" style="endArrow=classic;html=1;rounded=0;entryX=0;entryY=1;entryDx=0;entryDy=0;" edge="1" parent="1" source="BjwGlEAwL-FPY7ckOora-1" target="BjwGlEAwL-FPY7ckOora-5">
          <mxGeometry width="50" height="50" relative="1" as="geometry">
            <mxPoint x="140" y="80" as="sourcePoint" />
            <mxPoint x="190" y="30" as="targetPoint" />
          </mxGeometry>
        </mxCell>
        <mxCell id="BjwGlEAwL-FPY7ckOora-7" value="&lt;font style=&quot;font-size: 52px;&quot;&gt;...&lt;/font&gt;" style="text;html=1;strokeColor=none;fillColor=none;align=center;verticalAlign=middle;whiteSpace=wrap;rounded=0;" vertex="1" parent="1">
          <mxGeometry x="430" y="130" width="60" height="30" as="geometry" />
        </mxCell>
        <mxCell id="BjwGlEAwL-FPY7ckOora-10" value="" style="endArrow=classic;html=1;rounded=0;fontSize=52;exitX=0.5;exitY=0;exitDx=0;exitDy=0;entryX=0.5;entryY=1;entryDx=0;entryDy=0;" edge="1" parent="1" source="BjwGlEAwL-FPY7ckOora-2" target="BjwGlEAwL-FPY7ckOora-5">
          <mxGeometry width="50" height="50" relative="1" as="geometry">
            <mxPoint x="360" y="90" as="sourcePoint" />
            <mxPoint x="410" y="40" as="targetPoint" />
          </mxGeometry>
        </mxCell>
        <mxCell id="BjwGlEAwL-FPY7ckOora-11" value="" style="endArrow=classic;html=1;rounded=0;fontSize=52;exitX=0;exitY=0;exitDx=0;exitDy=0;entryX=1;entryY=1;entryDx=0;entryDy=0;" edge="1" parent="1" source="BjwGlEAwL-FPY7ckOora-4" target="BjwGlEAwL-FPY7ckOora-5">
          <mxGeometry width="50" height="50" relative="1" as="geometry">
            <mxPoint x="570" y="40" as="sourcePoint" />
            <mxPoint x="620" y="-10" as="targetPoint" />
          </mxGeometry>
        </mxCell>
        <mxCell id="BjwGlEAwL-FPY7ckOora-27" style="edgeStyle=orthogonalEdgeStyle;rounded=0;orthogonalLoop=1;jettySize=auto;html=1;entryX=0.5;entryY=1;entryDx=0;entryDy=0;fontSize=17;" edge="1" parent="1" source="BjwGlEAwL-FPY7ckOora-12" target="BjwGlEAwL-FPY7ckOora-20">
          <mxGeometry relative="1" as="geometry" />
        </mxCell>
        <mxCell id="BjwGlEAwL-FPY7ckOora-12" value="&lt;font style=&quot;font-size: 17px;&quot;&gt;本地模型Init&lt;/font&gt;" style="ellipse;whiteSpace=wrap;html=1;aspect=fixed;" vertex="1" parent="1">
          <mxGeometry x="873" y="93" width="80" height="80" as="geometry" />
        </mxCell>
        <mxCell id="BjwGlEAwL-FPY7ckOora-28" style="edgeStyle=orthogonalEdgeStyle;rounded=0;orthogonalLoop=1;jettySize=auto;html=1;fontSize=17;" edge="1" parent="1" source="BjwGlEAwL-FPY7ckOora-13" target="BjwGlEAwL-FPY7ckOora-21">
          <mxGeometry relative="1" as="geometry" />
        </mxCell>
        <mxCell id="BjwGlEAwL-FPY7ckOora-13" value="&lt;span style=&quot;font-size: 17px;&quot;&gt;本地模型Init&lt;/span&gt;" style="ellipse;whiteSpace=wrap;html=1;aspect=fixed;" vertex="1" parent="1">
          <mxGeometry x="1113" y="93" width="80" height="80" as="geometry" />
        </mxCell>
        <mxCell id="BjwGlEAwL-FPY7ckOora-29" style="edgeStyle=orthogonalEdgeStyle;rounded=0;orthogonalLoop=1;jettySize=auto;html=1;entryX=0.5;entryY=1;entryDx=0;entryDy=0;fontSize=17;" edge="1" parent="1" source="BjwGlEAwL-FPY7ckOora-14" target="BjwGlEAwL-FPY7ckOora-22">
          <mxGeometry relative="1" as="geometry" />
        </mxCell>
        <mxCell id="BjwGlEAwL-FPY7ckOora-14" value="&lt;span style=&quot;font-size: 17px;&quot;&gt;本地模型Init&lt;/span&gt;" style="ellipse;whiteSpace=wrap;html=1;aspect=fixed;" vertex="1" parent="1">
          <mxGeometry x="1393" y="93" width="80" height="80" as="geometry" />
        </mxCell>
        <mxCell id="BjwGlEAwL-FPY7ckOora-15" value="&lt;span style=&quot;font-size: 17px;&quot;&gt;中心模型&lt;/span&gt;" style="ellipse;whiteSpace=wrap;html=1;" vertex="1" parent="1">
          <mxGeometry x="1133" y="-187" width="120" height="80" as="geometry" />
        </mxCell>
        <mxCell id="BjwGlEAwL-FPY7ckOora-16" value="" style="endArrow=classic;html=1;rounded=0;entryX=0;entryY=1;entryDx=0;entryDy=0;" edge="1" target="BjwGlEAwL-FPY7ckOora-15" parent="1">
          <mxGeometry width="50" height="50" relative="1" as="geometry">
            <mxPoint x="913" y="-17" as="sourcePoint" />
            <mxPoint x="1013" y="13" as="targetPoint" />
          </mxGeometry>
        </mxCell>
        <mxCell id="BjwGlEAwL-FPY7ckOora-17" value="&lt;font style=&quot;font-size: 52px;&quot;&gt;...&lt;/font&gt;" style="text;html=1;strokeColor=none;fillColor=none;align=center;verticalAlign=middle;whiteSpace=wrap;rounded=0;" vertex="1" parent="1">
          <mxGeometry x="1253" y="113" width="60" height="30" as="geometry" />
        </mxCell>
        <mxCell id="BjwGlEAwL-FPY7ckOora-18" value="" style="endArrow=classic;html=1;rounded=0;fontSize=52;entryX=0.5;entryY=1;entryDx=0;entryDy=0;exitX=0.5;exitY=0;exitDx=0;exitDy=0;" edge="1" source="BjwGlEAwL-FPY7ckOora-21" target="BjwGlEAwL-FPY7ckOora-15" parent="1">
          <mxGeometry width="50" height="50" relative="1" as="geometry">
            <mxPoint x="1163" y="-27" as="sourcePoint" />
            <mxPoint x="1233" y="23" as="targetPoint" />
          </mxGeometry>
        </mxCell>
        <mxCell id="BjwGlEAwL-FPY7ckOora-19" value="" style="endArrow=classic;html=1;rounded=0;fontSize=52;entryX=1;entryY=1;entryDx=0;entryDy=0;exitX=0.287;exitY=0.039;exitDx=0;exitDy=0;exitPerimeter=0;" edge="1" source="BjwGlEAwL-FPY7ckOora-22" target="BjwGlEAwL-FPY7ckOora-15" parent="1">
          <mxGeometry width="50" height="50" relative="1" as="geometry">
            <mxPoint x="1413" y="-17" as="sourcePoint" />
            <mxPoint x="1443" y="-27" as="targetPoint" />
          </mxGeometry>
        </mxCell>
        <mxCell id="BjwGlEAwL-FPY7ckOora-20" value="&lt;font style=&quot;font-size: 12px;&quot;&gt;本地&lt;br&gt;模型Update&lt;/font&gt;" style="shape=ext;double=1;rounded=1;whiteSpace=wrap;html=1;fontSize=17;" vertex="1" parent="1">
          <mxGeometry x="878" y="-17" width="70" height="70" as="geometry" />
        </mxCell>
        <mxCell id="BjwGlEAwL-FPY7ckOora-21" value="&lt;font style=&quot;font-size: 11px;&quot;&gt;本地&lt;br&gt;模型Update&lt;/font&gt;" style="ellipse;shape=doubleEllipse;whiteSpace=wrap;html=1;aspect=fixed;fontSize=17;" vertex="1" parent="1">
          <mxGeometry x="1111.75" y="-17" width="82.5" height="82.5" as="geometry" />
        </mxCell>
        <mxCell id="BjwGlEAwL-FPY7ckOora-22" value="&lt;font style=&quot;font-size: 10px;&quot;&gt;本地&lt;br&gt;模型Update&lt;/font&gt;" style="ellipse;shape=doubleEllipse;whiteSpace=wrap;html=1;fontSize=17;" vertex="1" parent="1">
          <mxGeometry x="1388" y="-17" width="90" height="60" as="geometry" />
        </mxCell>
        <mxCell id="BjwGlEAwL-FPY7ckOora-32" value="&lt;font style=&quot;font-size: 12px;&quot;&gt;预训练&lt;/font&gt;" style="text;html=1;strokeColor=none;fillColor=none;align=center;verticalAlign=middle;whiteSpace=wrap;rounded=0;dashed=1;fontSize=12;" vertex="1" parent="1">
          <mxGeometry x="913" y="65.5" width="60" height="20" as="geometry" />
        </mxCell>
        <mxCell id="BjwGlEAwL-FPY7ckOora-33" value="&lt;font style=&quot;font-size: 12px;&quot;&gt;预训练&lt;/font&gt;" style="text;html=1;strokeColor=none;fillColor=none;align=center;verticalAlign=middle;whiteSpace=wrap;rounded=0;dashed=1;fontSize=12;" vertex="1" parent="1">
          <mxGeometry x="1153" y="71" width="60" height="20" as="geometry" />
        </mxCell>
        <mxCell id="BjwGlEAwL-FPY7ckOora-34" value="&lt;font style=&quot;font-size: 12px;&quot;&gt;预训练&lt;/font&gt;" style="text;html=1;strokeColor=none;fillColor=none;align=center;verticalAlign=middle;whiteSpace=wrap;rounded=0;dashed=1;fontSize=12;" vertex="1" parent="1">
          <mxGeometry x="1433" y="63" width="60" height="20" as="geometry" />
        </mxCell>
        <mxCell id="BjwGlEAwL-FPY7ckOora-36" value="更新后的参数" style="text;html=1;strokeColor=none;fillColor=none;align=center;verticalAlign=middle;whiteSpace=wrap;rounded=0;dashed=1;fontSize=12;" vertex="1" parent="1">
          <mxGeometry x="948" y="-97" width="100" height="30" as="geometry" />
        </mxCell>
        <mxCell id="BjwGlEAwL-FPY7ckOora-37" value="更新后的参数" style="text;html=1;strokeColor=none;fillColor=none;align=center;verticalAlign=middle;whiteSpace=wrap;rounded=0;dashed=1;fontSize=12;" vertex="1" parent="1">
          <mxGeometry x="1163" y="-67" width="100" height="30" as="geometry" />
        </mxCell>
        <mxCell id="BjwGlEAwL-FPY7ckOora-38" value="更新后的参数" style="text;html=1;strokeColor=none;fillColor=none;align=center;verticalAlign=middle;whiteSpace=wrap;rounded=0;dashed=1;fontSize=12;" vertex="1" parent="1">
          <mxGeometry x="1333" y="-97" width="100" height="30" as="geometry" />
        </mxCell>
      </root>
    </mxGraphModel>
  </diagram>
</mxfile>
